<svg width="77" height="53" viewBox="0 0 77 53" fill="none" xmlns="http://www.w3.org/2000/svg">
<path d="M54.5 49C66.9251 49 77 38.9251 77 26.5C77 14.0749 66.9251 4 54.5 4C42.0749 4 32 14.0749 32 26.5C32 38.9251 42.0749 49 54.5 49Z" fill="white"/>
<path d="M75.5999 34.3223C77.4667 29.2727 77.4667 23.7221 75.5999 18.6725H33.4001C31.5333 23.7221 31.5333 29.2727 33.4001 34.3223L54.5 36.2884L75.5999 34.3223Z" fill="#0052B4"/>
<path d="M54.4998 49C64.1748 49 72.4242 42.9004 75.5997 34.3223H33.3999C36.5789 42.9004 44.8248 49 54.4998 49Z" fill="#D80027"/>
<g filter="url(#filter0_d_23_32)">
<path d="M22.5 49C34.9264 49 45 38.9264 45 26.5C45 14.0736 34.9264 4 22.5 4C10.0736 4 0 14.0736 0 26.5C0 38.9264 10.0736 49 22.5 49Z" fill="#F0F0F0"/>
<path d="M21.5215 26.5001H44.9997C44.9997 24.4693 44.729 22.5019 44.2246 20.6305H21.5215V26.5001Z" fill="#D80027"/>
<path d="M21.5215 14.761H41.6973C40.32 12.5134 38.5589 10.5268 36.5056 8.89136H21.5215V14.761Z" fill="#D80027"/>
<path d="M22.4996 49.0002C27.7949 49.0002 32.662 47.1699 36.5054 44.1089H8.49365C12.3371 47.1699 17.2042 49.0002 22.4996 49.0002Z" fill="#D80027"/>
<path d="M3.3022 38.2392H41.6974C42.8031 36.4349 43.6607 34.4627 44.2247 32.3696H0.774902C1.3389 34.4627 2.19645 36.4349 3.3022 38.2392Z" fill="#D80027"/>
<path d="M10.4224 7.51369H12.4728L10.5656 8.89929L11.2941 11.1413L9.38698 9.75569L7.47984 11.1413L8.10914 9.20444C6.4299 10.6032 4.95809 12.242 3.7452 14.068H4.40218L3.18814 14.95C2.999 15.2656 2.8176 15.5861 2.64375 15.9114L3.22348 17.6956L2.14189 16.9098C1.87304 17.4794 1.62712 18.0619 1.40607 18.6565L2.04478 20.6224H4.40218L2.49495 22.008L3.22348 24.25L1.31634 22.8644L0.173936 23.6944C0.0595898 24.6136 0 25.5498 0 26.5H22.5C22.5 14.0737 22.5 12.6087 22.5 4C18.0552 4 13.9118 5.28936 10.4224 7.51369ZM11.2941 24.25L9.38698 22.8644L7.47984 24.25L8.20837 22.008L6.30114 20.6224H8.65854L9.38698 18.3804L10.1154 20.6224H12.4728L10.5656 22.008L11.2941 24.25ZM10.5656 15.4536L11.2941 17.6956L9.38698 16.31L7.47984 17.6956L8.20837 15.4536L6.30114 14.068H8.65854L9.38698 11.826L10.1154 14.068H12.4728L10.5656 15.4536ZM19.3648 24.25L17.4576 22.8644L15.5505 24.25L16.279 22.008L14.3718 20.6224H16.7292L17.4576 18.3804L18.1861 20.6224H20.5435L18.6362 22.008L19.3648 24.25ZM18.6362 15.4536L19.3648 17.6956L17.4576 16.31L15.5505 17.6956L16.279 15.4536L14.3718 14.068H16.7292L17.4576 11.826L18.1861 14.068H20.5435L18.6362 15.4536ZM18.6362 8.89929L19.3648 11.1413L17.4576 9.75569L15.5505 11.1413L16.279 8.89929L14.3718 7.51369H16.7292L17.4576 5.27169L18.1861 7.51369H20.5435L18.6362 8.89929Z" fill="#0052B4"/>
</g>
<defs>
<filter id="filter0_d_23_32" x="0" y="0" width="53" height="53.0002" filterUnits="userSpaceOnUse" color-interpolation-filters="sRGB">
<feFlood flood-opacity="0" result="BackgroundImageFix"/>
<feColorMatrix in="SourceAlpha" type="matrix" values="0 0 0 0 0 0 0 0 0 0 0 0 0 0 0 0 0 0 127 0" result="hardAlpha"/>
<feOffset dx="4"/>
<feGaussianBlur stdDeviation="2"/>
<feComposite in2="hardAlpha" operator="out"/>
<feColorMatrix type="matrix" values="0 0 0 0 0 0 0 0 0 0 0 0 0 0 0 0 0 0 0.25 0"/>
<feBlend mode="normal" in2="BackgroundImageFix" result="effect1_dropShadow_23_32"/>
<feBlend mode="normal" in="SourceGraphic" in2="effect1_dropShadow_23_32" result="shape"/>
</filter>
</defs>
</svg>
