<svg width="80" height="25" viewBox="0 0 80 25" fill="none" xmlns="http://www.w3.org/2000/svg">
<g style="mix-blend-mode:luminosity">
<path d="M8.98978 9.50702H4.93555V15.1408H8.98978V9.50702Z" fill="#EFE9DA"/>
<mask id="mask0_12_320" style="mask-type:alpha" maskUnits="userSpaceOnUse" x="4" y="9" width="6" height="16">
<path d="M9.69511 24.2957C9.69511 24.2957 9.1262 25.0084 7.05105 24.9999C4.79962 24.9913 4.23356 24.288 4.23071 24.2957V9.35188C4.23071 9.2431 4.31717 9.15491 4.42712 9.15491H4.73939C4.84786 9.15491 4.9358 9.2434 4.9358 9.34883V14.7887C5.40063 14.9722 6.03514 15.1283 7.22732 15.1408C7.89068 15.1357 8.5252 14.9806 8.99003 14.7887V9.34883C8.99003 9.24173 9.07648 9.15491 9.18643 9.15491H9.49871C9.60718 9.15491 9.69511 9.24382 9.69511 9.35188V24.2957Z" fill="white"/>
</mask>
<g mask="url(#mask0_12_320)">
<path d="M9.69511 24.2957C9.69511 24.2957 9.1262 25.0084 7.05105 24.9999C4.79962 24.9913 4.23356 24.288 4.23071 24.2957V9.35188C4.23071 9.2431 4.31717 9.15491 4.42712 9.15491H4.73939C4.84786 9.15491 4.9358 9.2434 4.9358 9.34883V14.7887C5.40063 14.9722 6.03514 15.1283 7.22732 15.1408C7.89068 15.1357 8.5252 14.9806 8.99003 14.7887V9.34883C8.99003 9.24173 9.07648 9.15491 9.18643 9.15491H9.49871C9.60718 9.15491 9.69511 9.24382 9.69511 9.35188V24.2957Z" fill="#CDCDCD"/>
<path d="M6.96291 8.97894H4.05444V25.8803H6.96291V8.97894Z" fill="white" fill-opacity="0.2"/>
</g>
<path d="M14.4541 9.50702H10.3999V15.1408H14.4541V9.50702Z" fill="#EFE9DA"/>
<mask id="mask1_12_320" style="mask-type:alpha" maskUnits="userSpaceOnUse" x="9" y="9" width="7" height="16">
<path d="M15.1592 24.2957C15.1592 24.2957 14.5903 25.0084 12.5152 24.9999C10.2637 24.9913 9.69767 24.288 9.69482 24.2957V9.35188C9.69482 9.2431 9.78128 9.15491 9.89123 9.15491H10.2035C10.312 9.15491 10.3999 9.2434 10.3999 9.34883V14.7887C10.8647 14.9722 11.4993 15.1283 12.6914 15.1408C13.3548 15.1357 13.9893 14.9806 14.4541 14.7887V9.34883C14.4541 9.24173 14.5406 9.15491 14.6505 9.15491H14.9628C15.0713 9.15491 15.1592 9.24382 15.1592 9.35188V24.2957Z" fill="white"/>
</mask>
<g mask="url(#mask1_12_320)">
<path d="M15.1592 24.2957C15.1592 24.2957 14.5903 25.0084 12.5152 24.9999C10.2637 24.9913 9.69767 24.288 9.69482 24.2957V9.35188C9.69482 9.2431 9.78128 9.15491 9.89123 9.15491H10.2035C10.312 9.15491 10.3999 9.2434 10.3999 9.34883V14.7887C10.8647 14.9722 11.4993 15.1283 12.6914 15.1408C13.3548 15.1357 13.9893 14.9806 14.4541 14.7887V9.34883C14.4541 9.24173 14.5406 9.15491 14.6505 9.15491H14.9628C15.0713 9.15491 15.1592 9.24382 15.1592 9.35188V24.2957Z" fill="#3B393F"/>
<path d="M12.4273 8.97894H9.5188V25.8803H12.4273V8.97894Z" fill="white" fill-opacity="0.05"/>
</g>
<path d="M19.919 9.50702H15.8647V15.1408H19.919V9.50702Z" fill="#EFE9DA"/>
<mask id="mask2_12_320" style="mask-type:alpha" maskUnits="userSpaceOnUse" x="15" y="9" width="6" height="16">
<path d="M20.6236 24.2957C20.6236 24.2957 20.0547 25.0084 17.9795 24.9999C15.7281 24.9913 15.162 24.288 15.1592 24.2957V9.35188C15.1592 9.2431 15.2456 9.15491 15.3556 9.15491H15.6679C15.7763 9.15491 15.8643 9.2434 15.8643 9.34883V14.7887C16.3291 14.9722 16.9636 15.1283 18.1558 15.1408C18.8191 15.1357 19.4537 14.9806 19.9185 14.7887V9.34883C19.9185 9.24173 20.005 9.15491 20.1149 9.15491H20.4272C20.5356 9.15491 20.6236 9.24382 20.6236 9.35188V24.2957Z" fill="white"/>
</mask>
<g mask="url(#mask2_12_320)">
<path d="M20.6236 24.2957C20.6236 24.2957 20.0547 25.0084 17.9795 24.9999C15.7281 24.9913 15.162 24.288 15.1592 24.2957V9.35188C15.1592 9.2431 15.2456 9.15491 15.3556 9.15491H15.6679C15.7763 9.15491 15.8643 9.2434 15.8643 9.34883V14.7887C16.3291 14.9722 16.9636 15.1283 18.1558 15.1408C18.8191 15.1357 19.4537 14.9806 19.9185 14.7887V9.34883C19.9185 9.24173 20.005 9.15491 20.1149 9.15491H20.4272C20.5356 9.15491 20.6236 9.24382 20.6236 9.35188V24.2957Z" fill="#FF4C00"/>
<path d="M17.8919 8.97894H14.9834V25.8803H17.8919V8.97894Z" fill="white" fill-opacity="0.1"/>
</g>
<path fill-rule="evenodd" clip-rule="evenodd" d="M5.64087 14.4366H8.28493V19.7183L6.9629 19.014L5.64087 19.7183V14.4366Z" fill="#FF4C00"/>
<path d="M23.083 11.1252C22.9622 5.34218 18.229 0.706729 12.4272 0.706729C6.61349 0.706729 1.87479 5.36053 1.77086 11.1572C1.77045 11.18 1.76926 14.9296 1.76926 14.9296L23.0855 14.8413C23.0852 14.7972 23.0835 11.1517 23.083 11.1252ZM1.06152 14.9296C1.06152 14.8855 1.06214 11.2135 1.06338 11.1445C1.17408 4.97074 6.21945 0 12.4272 0C18.6236 0 23.6618 4.95244 23.7904 11.1104C23.7921 11.1907 23.7929 14.7971 23.7929 14.8413L1.06152 14.9296Z" fill="#3B393F"/>
<path fill-rule="evenodd" clip-rule="evenodd" d="M3.18433 5.83477L4.55446 5.45827C5.07273 5.31583 5.54799 5.04549 5.93864 4.67151C7.63154 3.05127 9.91327 2.05812 12.4239 2.05812C14.9344 2.05812 17.2161 3.05127 18.9092 4.67151C19.2997 5.04549 19.7749 5.31583 20.2932 5.45827L21.6633 5.83477C19.7443 2.70334 16.3242 0.618408 12.4239 0.618408C8.5234 0.618408 5.1033 2.70334 3.18433 5.83477Z" fill="black"/>
<path d="M2.26181 14.4366H0.558521C0.250058 14.4366 0 14.6866 0 14.9951V20.5682C0 20.8766 0.250058 21.1267 0.558521 21.1267H2.26181C2.57028 21.1267 2.82033 20.8766 2.82033 20.5682V14.9951C2.82033 14.6866 2.57028 14.4366 2.26181 14.4366Z" fill="black"/>
<path d="M3.31943 13.0281H1.61614C1.30768 13.0281 1.05762 13.2781 1.05762 13.5866V21.6244C1.05762 21.9329 1.30768 22.183 1.61614 22.183H3.31943C3.62789 22.183 3.87795 21.9329 3.87795 21.6244V13.5866C3.87795 13.2781 3.62789 13.0281 3.31943 13.0281Z" fill="#3B393F"/>
<path d="M24.2957 14.4366H22.5925C22.284 14.4366 22.0339 14.6866 22.0339 14.9951V20.5682C22.0339 20.8766 22.284 21.1267 22.5925 21.1267H24.2957C24.6042 21.1267 24.8543 20.8766 24.8543 20.5682V14.9951C24.8543 14.6866 24.6042 14.4366 24.2957 14.4366Z" fill="black"/>
<path d="M23.2381 13.0281H21.5348C21.2264 13.0281 20.9763 13.2781 20.9763 13.5866V21.6244C20.9763 21.9329 21.2264 22.183 21.5348 22.183H23.2381C23.5466 22.183 23.7967 21.9329 23.7967 21.6244V13.5866C23.7967 13.2781 23.5466 13.0281 23.2381 13.0281Z" fill="#3B393F"/>
<path fill-rule="evenodd" clip-rule="evenodd" d="M36.3042 8.9959C36.2668 9.88496 36.2246 10.6943 36.1779 11.4245C36.1309 12.1544 36.0679 12.8122 35.9888 13.3967C35.9092 13.9815 35.804 14.4987 35.6731 14.9478C35.5423 15.3971 35.3741 15.7853 35.1684 16.1129C35.0376 16.3284 34.8902 16.5062 34.7267 16.6465C34.5632 16.7865 34.3925 16.8989 34.2152 16.9834C34.0374 17.0676 33.8621 17.1259 33.6894 17.1589C33.5164 17.1916 33.3552 17.2079 33.2058 17.2079C32.9908 17.2079 32.8108 17.1916 32.6659 17.1589C32.521 17.1259 32.3789 17.0769 32.2385 17.0113L32.4487 15.3551C32.5047 15.374 32.5607 15.3878 32.6169 15.3971C32.6729 15.4064 32.7292 15.4112 32.7852 15.4112C32.9346 15.4112 33.082 15.374 33.2266 15.2985C33.3715 15.2241 33.4953 15.0976 33.5985 14.9196C33.7384 14.7142 33.8599 14.4125 33.9629 14.0145C34.0656 13.6167 34.1567 13.1091 34.236 12.4913C34.3154 11.8735 34.3787 11.1369 34.4254 10.2805C34.4718 9.42409 34.5044 8.42544 34.5236 7.28369H40.3136V17.1096H38.3929V8.9959H36.3042Z" fill="black"/>
<path fill-rule="evenodd" clip-rule="evenodd" d="M46.0692 12.9123H46.0273L45.4243 13.9369L42.9289 17.1095H41.7793V10.0908H43.6018V13.4315L43.5177 14.3862H43.5737L44.1487 13.3895L46.6721 10.0908H47.8216V17.1095H45.9994V13.9087L46.0692 12.9123Z" fill="black"/>
<path fill-rule="evenodd" clip-rule="evenodd" d="M52.7695 11.7052V17.1095H50.891V11.7052H48.8865V10.0908H54.7184V11.7052H52.7695Z" fill="black"/>
<path fill-rule="evenodd" clip-rule="evenodd" d="M58.7739 8.79925C58.5871 8.79925 58.4093 8.80629 58.2413 8.82038C58.0731 8.83418 57.9375 8.8508 57.8348 8.86968V12.0561C57.8719 12.0653 57.9279 12.0749 58.003 12.0839C58.0776 12.0935 58.1575 12.1006 58.2413 12.1051C58.3252 12.1099 58.407 12.1121 58.4866 12.1121H58.6616C58.9143 12.1121 59.1644 12.089 59.4117 12.042C59.6595 11.9955 59.8815 11.9087 60.0779 11.7825C60.2743 11.656 60.4304 11.4805 60.5475 11.2557C60.6639 11.0312 60.7227 10.7365 60.7227 10.3717C60.7227 10.0627 60.6667 9.80776 60.5545 9.60634C60.4425 9.40548 60.2948 9.24378 60.1128 9.12237C59.9308 9.00067 59.7223 8.91616 59.4891 8.86968C59.2555 8.82263 59.0167 8.79925 58.7739 8.79925ZM57.211 7.20621C57.6826 7.16395 58.1524 7.14282 58.6197 7.14282C59.1056 7.14282 59.5943 7.18282 60.0847 7.26227C60.5753 7.34171 61.0173 7.50087 61.4095 7.73948C61.8022 7.97808 62.1221 8.31021 62.3697 8.73587C62.617 9.16209 62.7411 9.71649 62.7411 10.3993C62.7411 11.0171 62.6342 11.5391 62.4187 11.9648C62.2037 12.3907 61.919 12.7389 61.5637 13.0105C61.2083 13.282 60.8043 13.4787 60.3514 13.6001C59.8978 13.7221 59.428 13.7826 58.9427 13.7826H58.7176C58.6146 13.7826 58.5077 13.7801 58.3952 13.7756C58.2832 13.7708 58.1732 13.764 58.0658 13.7547C57.9583 13.7454 57.8809 13.7359 57.8345 13.7266V17.1096H55.9141V7.38143C56.3063 7.30678 56.739 7.24818 57.211 7.20621Z" fill="#FF4C00"/>
<path fill-rule="evenodd" clip-rule="evenodd" d="M66.3971 11.3252C65.8274 11.3419 65.5613 11.4855 65.3232 11.7655C65.0869 12.0441 64.9505 12.4244 64.9046 12.9017L67.5222 12.9262C67.5593 12.4211 67.514 12.0309 67.3239 11.7596C67.1334 11.4881 66.8062 11.3131 66.3971 11.3252ZM67.8514 17.0743C67.3706 17.2289 66.8585 17.3061 66.3164 17.3061C65.1854 17.3061 64.3585 16.9762 63.835 16.3162C63.3117 15.6565 63.0503 14.7511 63.0503 13.6C63.0503 12.365 63.3446 11.4382 63.9331 10.8207C64.522 10.2029 65.3491 9.89417 66.4146 9.89417C66.7696 9.89417 67.1157 9.94093 67.4521 10.0345C67.7886 10.128 68.0874 10.2826 68.3493 10.4976C68.6113 10.7131 68.8214 11.0032 68.9801 11.368C69.1391 11.7329 69.2187 12.1873 69.2187 12.7301C69.2187 12.9262 69.2069 13.1369 69.1835 13.3614C69.1602 13.5859 69.1253 13.8197 69.0786 14.0634H64.8531C64.8813 14.653 65.0658 15.0973 65.3407 15.3967C65.6153 15.6965 66.0604 15.8458 66.6748 15.8458C67.0563 15.8458 67.3933 15.7714 67.7017 15.6705C68.086 15.5449 68.4478 15.3736 68.4478 15.3736L68.9942 16.5058C68.7137 16.7303 68.3327 16.9199 67.8514 17.0743Z" fill="#FF4C00"/>
<path fill-rule="evenodd" clip-rule="evenodd" d="M75.1427 11.447C75.1427 11.447 74.5848 11.3334 74.1453 11.3334C72.8942 11.3334 72.082 12.0507 72.082 13.6336C72.082 15.1184 72.7015 15.852 74.008 15.852C74.434 15.852 75.2549 15.7379 75.2549 15.7379L75.5061 17.0064C75.1629 17.116 74.4888 17.2817 73.6777 17.2817C71.1344 17.2817 70.1992 15.4232 70.1992 13.5372C70.1992 11.6377 71.299 9.93054 73.8291 9.93054C74.2964 9.93054 74.8731 9.98547 75.4099 10.1232L75.1427 11.447Z" fill="#FF4C00"/>
<path fill-rule="evenodd" clip-rule="evenodd" d="M78.0223 12.0919C77.4506 12.0919 76.9878 11.6285 76.9878 11.0563C76.9878 10.4842 77.4506 10.0205 78.0223 10.0205C78.5931 10.0205 79.0565 10.4842 79.0565 11.0563C79.0565 11.6285 78.5931 12.0919 78.0223 12.0919Z" fill="#FF4C00"/>
<path fill-rule="evenodd" clip-rule="evenodd" d="M79.0565 16.1779C79.0565 16.7498 78.5931 17.2134 78.0223 17.2134C77.4506 17.2134 76.9878 16.7498 76.9878 16.1779C76.9878 15.6055 77.4506 15.1418 78.0223 15.1418C78.5931 15.1418 79.0565 15.6058 79.0565 16.1779Z" fill="#FF4C00"/>
</g>
</svg>
