<svg width="29" height="17" viewBox="0 0 29 17" fill="none" xmlns="http://www.w3.org/2000/svg">
<path d="M28.8463 15.1697C28.8111 15.0941 28.7784 15.0313 28.748 14.981C28.2449 14.0748 27.2833 12.9625 25.8641 11.6438L25.8341 11.6136L25.8191 11.5988L25.8039 11.5836H25.7887C25.1445 10.9696 24.7366 10.5567 24.5658 10.3453C24.2532 9.94267 24.1832 9.53508 24.354 9.1221C24.4747 8.81008 24.9281 8.15113 25.713 7.14436C26.1259 6.6108 26.4528 6.18317 26.6943 5.86099C28.4359 3.54568 29.1909 2.06617 28.9593 1.42187L28.8693 1.2713C28.8089 1.18066 28.6529 1.09773 28.4015 1.02211C28.1496 0.946639 27.8275 0.934159 27.4349 0.984452L23.0864 1.01449C23.016 0.989529 22.9154 0.991856 22.7844 1.02211C22.6535 1.05236 22.588 1.06753 22.588 1.06753L22.5123 1.10535L22.4522 1.15078C22.4019 1.18081 22.3465 1.23365 22.2861 1.30917C22.2259 1.38442 22.1756 1.47274 22.1355 1.57338C21.662 2.79138 21.1238 3.92381 20.5197 4.97062C20.1472 5.59482 19.8051 6.13578 19.4927 6.59382C19.1808 7.0517 18.919 7.38906 18.7078 7.6053C18.4963 7.82176 18.3054 7.99517 18.1339 8.12617C17.9627 8.25722 17.832 8.31259 17.7415 8.29233C17.6508 8.27208 17.5654 8.25198 17.4846 8.23189C17.3437 8.14124 17.2305 8.01797 17.1451 7.86196C17.0593 7.70594 17.0015 7.50958 16.9713 7.27303C16.9413 7.03631 16.9235 6.83271 16.9184 6.66152C16.9137 6.49054 16.9159 6.24869 16.9261 5.93667C16.9366 5.62449 16.9413 5.41327 16.9413 5.30253C16.9413 4.91995 16.9487 4.50475 16.9637 4.05682C16.9789 3.60888 16.9913 3.25397 17.0016 2.9925C17.0118 2.73077 17.0166 2.45387 17.0166 2.16194C17.0166 1.87001 16.9988 1.64107 16.9637 1.47491C16.929 1.30896 16.8758 1.14787 16.8056 0.991697C16.735 0.835686 16.6316 0.715002 16.496 0.629328C16.3602 0.54376 16.1913 0.475856 15.9903 0.425403C15.4567 0.304666 14.7773 0.239353 13.9517 0.229199C12.0795 0.209103 10.8765 0.329998 10.343 0.591727C10.1316 0.70231 9.94035 0.853402 9.76932 1.04453C9.58808 1.26607 9.5628 1.38696 9.69364 1.40685C10.2977 1.49733 10.7253 1.71379 10.977 2.05601L11.0677 2.23735C11.1382 2.36819 11.2087 2.59983 11.2792 2.93195C11.3496 3.26407 11.395 3.63146 11.415 4.03392C11.4652 4.76886 11.4652 5.39798 11.415 5.92134C11.3646 6.4449 11.317 6.85248 11.2716 7.14441C11.2261 7.43634 11.1582 7.67289 11.0677 7.85402C10.977 8.03521 10.9167 8.14595 10.8864 8.18614C10.8562 8.22633 10.831 8.25167 10.811 8.26161C10.6802 8.31174 10.5441 8.33729 10.4033 8.33729C10.2623 8.33729 10.0912 8.26674 9.88995 8.12575C9.68872 7.98476 9.47988 7.79109 9.26342 7.54443C9.04696 7.29772 8.80284 6.95297 8.53096 6.51011C8.25929 6.06725 7.97741 5.54384 7.68548 4.93989L7.44396 4.5019C7.29297 4.22012 7.08672 3.80984 6.82499 3.27142C6.5631 2.73278 6.33162 2.21176 6.13039 1.70845C6.04996 1.49707 5.92911 1.33614 5.76808 1.2254L5.69251 1.17997C5.64226 1.13978 5.56161 1.0971 5.45098 1.05162C5.34018 1.00619 5.22458 0.97361 5.10368 0.953567L0.966529 0.983606C0.543765 0.983606 0.256916 1.07938 0.105876 1.27067L0.0454284 1.36115C0.0152309 1.41155 0 1.49204 0 1.60284C0 1.71358 0.0301974 1.84949 0.0906452 2.01042C0.694594 3.42986 1.35137 4.79879 2.06099 6.11743C2.7706 7.43607 3.38724 8.49827 3.91054 9.30308C4.43394 10.1085 4.96745 10.8686 5.51106 11.5831C6.05466 12.2978 6.41449 12.7558 6.59055 12.9571C6.76682 13.1587 6.90527 13.3094 7.00591 13.41L7.38346 13.7723C7.62504 14.014 7.97979 14.3034 8.44788 14.6405C8.91607 14.9779 9.43439 15.31 10.0031 15.6374C10.572 15.9643 11.2337 16.231 11.9887 16.4373C12.7437 16.6439 13.4785 16.7267 14.1932 16.6867H15.9296C16.2818 16.6563 16.5486 16.5456 16.73 16.3545L16.79 16.2788C16.8304 16.2187 16.8682 16.1254 16.9032 15.9998C16.9385 15.874 16.956 15.7353 16.956 15.5846C16.9457 15.1518 16.9787 14.7618 17.054 14.4145C17.1292 14.0674 17.215 13.8057 17.311 13.6294C17.4068 13.4533 17.515 13.3047 17.6355 13.1842C17.7561 13.0635 17.8421 12.9903 17.8926 12.9652C17.9427 12.9398 17.9828 12.9226 18.013 12.9123C18.2545 12.8318 18.5388 12.9098 18.8663 13.1466C19.1935 13.3831 19.5004 13.6752 19.7875 14.0223C20.0744 14.3698 20.4191 14.7596 20.8216 15.1924C21.2245 15.6253 21.5767 15.9471 21.8785 16.1588L22.1804 16.34C22.382 16.4609 22.6437 16.5716 22.9659 16.6723C23.2875 16.7728 23.5693 16.798 23.8112 16.7477L27.6764 16.6874C28.0588 16.6874 28.3562 16.6241 28.5672 16.4985C28.7787 16.3727 28.9043 16.2341 28.9448 16.0833C28.9852 15.9324 28.9874 15.7611 28.9525 15.5697C28.9167 15.3787 28.8814 15.2452 28.8463 15.1697Z" fill="black"/>
</svg>
