<svg width="13" height="25" viewBox="0 0 13 25" fill="none" xmlns="http://www.w3.org/2000/svg">
<path d="M11.7488 0H8.19672C4.59805 0 0.966956 2.65734 0.966956 8.59406C0.966956 11.6691 2.27032 14.0641 4.65938 15.4262L0.286566 23.3408C0.0793002 23.7151 0.0739092 24.1393 0.272112 24.4755C0.465628 24.8039 0.819378 25 1.21836 25H3.43016C3.93266 25 4.32453 24.7571 4.51235 24.3316L8.61227 16.3125H8.91149V24.0005C8.91149 24.5423 9.36868 25 9.90977 25H11.8422C12.449 25 12.8727 24.5763 12.8727 23.9695V1.09391C12.8728 0.449844 12.4106 0 11.7488 0ZM8.91157 12.7503H8.38375C6.33711 12.7503 5.11524 11.0797 5.11524 8.28141C5.11524 4.80195 6.65875 3.56227 8.10328 3.56227H8.91157V12.7503Z" fill="black"/>
</svg>
